<svg width="1036" height="306" viewBox="0 0 1036 306" fill="none" xmlns="http://www.w3.org/2000/svg">
<path d="M224.205 288.976C222.424 286.391 220.603 283.833 218.862 281.221C217.35 278.953 212.805 273.69 215.53 273.753C220.256 273.863 224.081 277.812 228.169 280.187C229.849 281.163 237.704 285.578 240.003 287.712C242.392 289.932 234.634 291.569 231.558 292.653C222.057 296.002 212.829 299.68 203.524 303.453" stroke="#D6FFF8" stroke-width="2" stroke-linecap="round"/>
<path d="M1032.27 35.4996C1033.21 49.0953 1034.9 56.4723 1030.68 70.1355C1023.63 93.003 1007.59 112.671 988.52 126.617C950.263 154.591 898.591 156.59 853.259 151.406C802.895 145.646 753.451 130.977 704.358 118.864C640.881 103.2 576.966 89.3172 513.917 71.9466C445.309 53.0442 377.343 33.3627 307.403 19.6531C265.68 11.4745 223.52 4.41872 180.97 2.61805C148.381 1.23887 113.329 2.2532 82.3825 14.1068C50.1005 26.472 23.3256 48.8662 10.3941 81.5111C-3.72737 117.16 1.55862 157.366 23.0713 189.211C50.857 230.342 96.4457 253.682 141.807 269.462C169.777 279.192 194.994 281.487 223.417 286.101" stroke="#D6FFF8" stroke-width="2" stroke-linecap="round"/>
</svg>
