<svg width="1440" height="127" viewBox="0 0 1440 127" fill="none" xmlns="http://www.w3.org/2000/svg">
<path d="M357.897 67.4099C357.897 81.8729 342.621 91.7927 331.624 98.6099C323.988 103.343 315.357 106.357 306.939 109.363C298.108 112.517 289.458 115.854 280.374 118.209C264.119 122.423 247.164 121.758 230.502 121.758C208.936 121.758 187.044 118.262 166.275 112.409C155.639 109.412 145.246 105.278 134.783 101.735C125.139 98.4696 115.656 94.8878 106.391 90.6642C87.9875 82.2744 70.0655 73.2058 53.2609 61.9009C49.9105 59.647 46.632 57.4146 43.6732 54.6439C40.7947 51.9484 38.3988 48.8318 35.4097 46.248C31.5366 42.9001 29.4595 39.3026 26.3252 35.2565C23.5994 31.7378 20.7343 28.1974 17.7704 24.8742C15.8934 22.7697 13.8972 20.5583 13.2148 17.829" stroke="#D6FFF8" stroke-width="3" stroke-linecap="round"/>
<path d="M12.7383 18.7825C9.51257 20.1265 7.07421 26.4777 5.66665 29.2443C5.50529 29.5614 2.61957 37.2809 2.32947 33.7998C1.86974 28.283 2.25001 22.5898 2.25001 17.0609C2.25001 13.5584 1.91831 9.72954 2.35596 6.22834C2.66458 3.75932 6.6813 6.4776 7.54712 6.864C15.3466 10.3447 23.392 12.8346 31.3311 15.922" stroke="#D6FFF8" stroke-width="3" stroke-linecap="round"/>
<path d="M713.83 68.576C710.452 71.7388 708.081 75.8165 705.117 79.3556C699.427 86.1479 692.881 91.5424 685.12 95.8561C675.421 101.247 664.854 105.236 654.132 108.013C642.246 111.091 629.976 114.106 617.794 115.72C598.527 118.274 577.453 119.256 558.201 116.303C546.203 114.463 534.725 110.436 523.055 107.245C510.979 103.943 498.405 101.739 486.744 97.0744C477.198 93.2564 468.036 87.7352 459.093 82.7192C447.788 76.379 437.194 68.9464 426.886 61.1071C413.438 50.8791 400.125 40.5099 387.847 28.9536C384.389 25.6999 380.401 21.1326 375.902 19.4453C374.936 19.0834 373.681 17.5824 373.438 16.6114" stroke="#D6FFF8" stroke-width="3" stroke-linecap="round"/>
<path d="M370.806 18.534C370.806 23.0895 370.806 27.645 370.806 32.2005C370.806 34.0069 369.982 27.3753 369.852 26.7445C368.69 21.1 366.53 15.0873 366.171 9.34354C366.091 8.07022 369.197 9.83893 369.217 9.84677C375.933 12.4554 382.664 15.0195 389.399 17.5805" stroke="#D6FFF8" stroke-width="3" stroke-linecap="round"/>
<path d="M1077.02 69.1632C1076.15 70.0715 1076.49 69.602 1075.8 71.0527C1073.04 76.8564 1070.18 81.8953 1065.95 86.9004C1054.68 100.256 1039.41 109.764 1022.71 115.06C985.515 126.855 945.337 126.844 907.049 121.765C877.737 117.877 856.667 112.649 829.974 100.919C806.315 90.5226 785.688 74.9584 766.828 57.5212C754.257 45.8996 742.554 32.8039 734.706 17.5973" stroke="#D6FFF8" stroke-width="3" stroke-linecap="round"/>
<path d="M733.608 19.243C732.175 22.0374 732.08 22.2405 730.378 25.4601C729.666 26.8061 725.186 37.7991 723.246 37.7421C721.992 37.7052 725.625 8.15426 726.233 5.28482C726.437 4.32269 726.788 1.40017 728.793 2.11528C733.119 3.65807 737.979 8.62343 741.563 11.2277C746.219 14.612 750.804 18.0706 756.1 20.3401" stroke="#D6FFF8" stroke-width="3" stroke-linecap="round"/>
<path d="M1437.02 69.1632C1436.15 70.0715 1436.49 69.602 1435.8 71.0527C1433.04 76.8564 1430.18 81.8953 1425.95 86.9004C1414.68 100.256 1399.41 109.764 1382.71 115.06C1345.52 126.855 1305.34 126.844 1267.05 121.765C1237.74 117.877 1216.67 112.649 1189.97 100.919C1166.32 90.5226 1145.69 74.9584 1126.83 57.5212C1114.26 45.8996 1102.55 32.8039 1094.71 17.5973" stroke="#D6FFF8" stroke-width="3" stroke-linecap="round"/>
<path d="M1093.61 19.243C1092.18 22.0374 1092.08 22.2405 1090.38 25.4601C1089.67 26.8061 1085.19 37.7991 1083.25 37.7421C1081.99 37.7052 1085.63 8.15426 1086.23 5.28482C1086.44 4.32269 1086.79 1.40017 1088.79 2.11528C1093.12 3.65807 1097.98 8.62343 1101.56 11.2277C1106.22 14.612 1110.8 18.0706 1116.1 20.3401" stroke="#D6FFF8" stroke-width="3" stroke-linecap="round"/>
</svg>
