<svg width="241" height="61" viewBox="0 0 241 61" fill="none" xmlns="http://www.w3.org/2000/svg">
<path d="M4.96124 34.4629C4.96124 37.1398 4.96124 39.8167 4.96124 42.4936C4.96124 45.4216 3.45348 53.0275 5.17539 55.6103C6.73512 57.9499 14.5983 56.6275 16.8466 56.6275C22.5216 56.6275 28.1966 56.6275 33.8717 56.6275" stroke="#2B1E1C" stroke-width="3" stroke-linecap="round"/>
<path d="M57 3.625C47.4576 13.1673 37.0766 21.8352 27.5542 31.3576C24.5512 34.3605 21.4057 38.0699 20.3801 42.1722" stroke="#2B1E1C" stroke-width="3" stroke-linecap="round"/>
<path d="M68.9606 33.2314C68.9606 35.9083 68.9606 38.5852 68.9606 41.2621C68.9606 44.1902 67.4529 51.796 69.1748 54.3789C70.7345 56.7185 78.5977 55.3961 80.846 55.3961C86.521 55.3961 92.196 55.3961 97.871 55.3961" stroke="#2B1E1C" stroke-width="3" stroke-linecap="round"/>
<path d="M113.65 4.23145C106.929 4.51747 105.682 9.50821 104.076 14.9776C102.646 19.8534 97.1181 22.5189 93.6039 25.7628C90.8551 28.3001 85.6265 30.8973 85.515 35.024C85.4564 37.1889 83.3777 39.6604 82.3497 41.5108" stroke="#2B1E1C" stroke-width="3" stroke-linecap="round"/>
<path d="M129.453 30.2314C129.453 32.9083 129.453 35.5852 129.453 38.2621C129.453 41.1902 127.945 48.796 129.667 51.3789C131.227 53.7185 139.09 52.3961 141.338 52.3961C147.013 52.3961 152.688 52.3961 158.363 52.3961" stroke="#2B1E1C" stroke-width="3" stroke-linecap="round"/>
<path d="M144.842 38.6209C147.72 37.9507 150.433 36.3662 152.939 34.8527C157.935 31.8361 161.746 27.7983 164.768 22.8164C167.064 19.0324 168.696 14.8884 170.67 10.9387C171.386 9.50769 172.072 8.31767 173.158 7.23145" stroke="#2B1E1C" stroke-width="3" stroke-linecap="round"/>
<path d="M189.453 30.2314C189.453 32.9083 189.453 35.5852 189.453 38.2621C189.453 41.1902 187.945 48.796 189.667 51.3789C191.227 53.7185 199.09 52.3961 201.338 52.3961C207.013 52.3961 212.688 52.3961 218.363 52.3961" stroke="#2B1E1C" stroke-width="3" stroke-linecap="round"/>
<path d="M204.842 38.6209C207.72 37.9507 210.433 36.3662 212.939 34.8527C217.935 31.8361 221.746 27.7983 224.768 22.8164C227.064 19.0324 228.696 14.8884 230.67 10.9387C231.386 9.50769 232.072 8.31767 233.158 7.23145" stroke="#2B1E1C" stroke-width="3" stroke-linecap="round"/>
</svg>
