<svg width="1480" height="127" viewBox="0 0 1480 127" fill="none" xmlns="http://www.w3.org/2000/svg">
<path d="M362.897 67.4099C362.897 81.8729 347.621 91.7927 336.624 98.6099C328.988 103.343 320.357 106.357 311.939 109.363C303.108 112.517 294.458 115.854 285.374 118.209C269.119 122.423 252.164 121.758 235.502 121.758C213.936 121.758 192.044 118.262 171.275 112.409C160.639 109.412 150.246 105.278 139.783 101.735C130.139 98.4696 120.656 94.8878 111.391 90.6642C92.9875 82.2744 75.0655 73.2058 58.2609 61.9009C54.9105 59.647 51.632 57.4146 48.6732 54.6439C45.7947 51.9484 43.3988 48.8318 40.4097 46.248C36.5366 42.9001 34.4595 39.3026 31.3252 35.2565C28.5994 31.7378 25.7343 28.1974 22.7704 24.8742C20.8934 22.7697 18.8972 20.5583 18.2148 17.829" stroke="#D6FFF8" stroke-width="3" stroke-linecap="round"/>
<path d="M17.7383 18.7825C14.5126 20.1265 12.0742 26.4777 10.6666 29.2443C10.5053 29.5614 7.61957 37.2809 7.32947 33.7998C6.86974 28.283 7.25001 22.5898 7.25001 17.0609C7.25001 13.5584 6.91831 9.72954 7.35596 6.22834C7.66458 3.75932 11.6813 6.47759 12.5471 6.86399C20.3466 10.3447 28.392 12.8346 36.3311 15.922" stroke="#D6FFF8" stroke-width="3" stroke-linecap="round"/>
<path d="M728.83 68.576C725.452 71.7388 723.081 75.8165 720.117 79.3556C714.427 86.1479 707.881 91.5424 700.12 95.8561C690.421 101.247 679.854 105.236 669.132 108.013C657.246 111.091 644.976 114.106 632.794 115.72C613.527 118.274 592.453 119.256 573.201 116.303C561.203 114.463 549.725 110.436 538.055 107.245C525.979 103.943 513.405 101.739 501.744 97.0744C492.198 93.2564 483.036 87.7352 474.093 82.7192C462.788 76.379 452.194 68.9464 441.886 61.1071C428.438 50.8791 415.125 40.5099 402.847 28.9536C399.389 25.6999 395.401 21.1326 390.902 19.4453C389.936 19.0834 388.681 17.5824 388.438 16.6114" stroke="#D6FFF8" stroke-width="3" stroke-linecap="round"/>
<path d="M385.806 18.534C385.806 23.0895 385.806 27.645 385.806 32.2005C385.806 34.0069 384.982 27.3753 384.852 26.7445C383.69 21.1 381.53 15.0873 381.171 9.34354C381.091 8.07022 384.197 9.83893 384.217 9.84677C390.933 12.4554 397.664 15.0195 404.399 17.5805" stroke="#D6FFF8" stroke-width="3" stroke-linecap="round"/>
<path d="M1102.02 69.1632C1101.15 70.0715 1101.49 69.6021 1100.8 71.0527C1098.04 76.8564 1095.18 81.8953 1090.95 86.9004C1079.68 100.256 1064.41 109.764 1047.71 115.06C1010.52 126.855 970.337 126.844 932.049 121.765C902.737 117.877 881.667 112.649 854.974 100.919C831.315 90.5226 810.688 74.9584 791.828 57.5212C779.257 45.8996 767.554 32.8039 759.706 17.5973" stroke="#D6FFF8" stroke-width="3" stroke-linecap="round"/>
<path d="M758.608 19.243C757.175 22.0374 757.08 22.2405 755.378 25.4601C754.666 26.8061 750.186 37.7991 748.246 37.7421C746.992 37.7052 750.625 8.15426 751.233 5.28483C751.437 4.3227 751.788 1.40017 753.793 2.11529C758.119 3.65808 762.979 8.62344 766.563 11.2277C771.219 14.612 775.804 18.0706 781.1 20.3401" stroke="#D6FFF8" stroke-width="3" stroke-linecap="round"/>
<path d="M1472.02 69.1632C1471.15 70.0715 1471.49 69.6021 1470.8 71.0527C1468.04 76.8564 1465.18 81.8953 1460.95 86.9004C1449.68 100.256 1434.41 109.764 1417.71 115.06C1380.52 126.855 1340.34 126.844 1302.05 121.765C1272.74 117.877 1251.67 112.649 1224.97 100.919C1201.32 90.5226 1180.69 74.9584 1161.83 57.5212C1149.26 45.8996 1137.55 32.8039 1129.71 17.5973" stroke="#D6FFF8" stroke-width="3" stroke-linecap="round"/>
<path d="M1128.61 19.243C1127.18 22.0374 1127.08 22.2405 1125.38 25.4601C1124.67 26.8061 1120.19 37.7991 1118.25 37.7421C1116.99 37.7052 1120.63 8.15426 1121.23 5.28483C1121.44 4.3227 1121.79 1.40017 1123.79 2.11529C1128.12 3.65808 1132.98 8.62344 1136.56 11.2277C1141.22 14.612 1145.8 18.0706 1151.1 20.3401" stroke="#D6FFF8" stroke-width="3" stroke-linecap="round"/>
</svg>
