<svg width="400" height="247" viewBox="0 0 400 247" fill="none" xmlns="http://www.w3.org/2000/svg">
<path d="M2.96838 82.0021C12.1832 82.578 21.3121 84.2984 30.4638 85.451C57.1127 88.8071 83.9187 90.9536 110.746 92.2051C131.15 93.1568 151.426 93.4489 171.581 89.5705C192.565 85.5326 216.151 78.3667 228.871 59.7758C239.56 44.1537 243.095 18.6108 224.943 6.89272C212.138 -1.37426 195.918 2.01043 182.982 8.13815C131.288 32.6248 139.081 99.1859 170.048 137.999C198.783 174.012 239.795 193.537 283.287 205.204C317.187 214.298 352.519 219.212 385.796 230.305" stroke="#D6FFF8" stroke-width="2" stroke-linecap="round"/>
<path d="M378.646 208.982C378.776 209.806 379.703 210.689 380.186 211.311C381.769 213.35 383.358 215.391 385.076 217.317C387.387 219.909 389.426 222.698 391.601 225.402C393.137 227.311 394.881 229.061 396.356 231.014C396.808 231.612 397.457 232.004 396.645 232.505C394.429 233.873 392.092 235.092 389.811 236.346C386.418 238.211 382.926 239.897 379.493 241.688C377.661 242.643 375.351 243.437 373.968 245.018" stroke="#D6FFF8" stroke-width="2" stroke-linecap="round"/>
</svg>
