<svg width="179" height="20" viewBox="0 0 179 20" fill="none" xmlns="http://www.w3.org/2000/svg">
<path d="M0.592041 9.41615C0.592041 8.32815 0.842708 7.35215 1.34404 6.48815C1.85604 5.62415 2.54404 4.95215 3.40804 4.47215C4.28271 3.98149 5.23737 3.73615 6.27204 3.73615C7.45604 3.73615 8.50671 4.02949 9.42404 4.61615C10.352 5.19215 11.024 6.01349 11.44 7.08015H9.24804C8.96004 6.49349 8.56004 6.05615 8.04804 5.76815C7.53604 5.48015 6.94404 5.33615 6.27204 5.33615C5.53604 5.33615 4.88004 5.50149 4.30404 5.83215C3.72804 6.16282 3.27471 6.63749 2.94404 7.25615C2.62404 7.87482 2.46404 8.59482 2.46404 9.41615C2.46404 10.2375 2.62404 10.9575 2.94404 11.5762C3.27471 12.1948 3.72804 12.6748 4.30404 13.0162C4.88004 13.3468 5.53604 13.5122 6.27204 13.5122C6.94404 13.5122 7.53604 13.3682 8.04804 13.0802C8.56004 12.7922 8.96004 12.3548 9.24804 11.7682H11.44C11.024 12.8348 10.352 13.6562 9.42404 14.2322C8.50671 14.8082 7.45604 15.0962 6.27204 15.0962C5.22671 15.0962 4.27204 14.8562 3.40804 14.3762C2.54404 13.8855 1.85604 13.2082 1.34404 12.3442C0.842708 11.4802 0.592041 10.5042 0.592041 9.41615Z" fill="white"/>
<path d="M17.399 15.1442C16.567 15.1442 15.815 14.9575 15.143 14.5842C14.471 14.2002 13.943 13.6668 13.559 12.9842C13.175 12.2908 12.983 11.4908 12.983 10.5842C12.983 9.68815 13.1804 8.89349 13.575 8.20015C13.9697 7.50682 14.5084 6.97349 15.191 6.60015C15.8737 6.22682 16.6364 6.04015 17.479 6.04015C18.3217 6.04015 19.0844 6.22682 19.767 6.60015C20.4497 6.97349 20.9884 7.50682 21.383 8.20015C21.7777 8.89349 21.975 9.68815 21.975 10.5842C21.975 11.4802 21.7724 12.2748 21.367 12.9682C20.9617 13.6615 20.407 14.2002 19.703 14.5842C19.0097 14.9575 18.2417 15.1442 17.399 15.1442ZM17.399 13.5602C17.8684 13.5602 18.3057 13.4482 18.711 13.2242C19.127 13.0002 19.463 12.6642 19.719 12.2162C19.975 11.7682 20.103 11.2242 20.103 10.5842C20.103 9.94415 19.9804 9.40549 19.735 8.96815C19.4897 8.52015 19.1644 8.18415 18.759 7.96015C18.3537 7.73615 17.9164 7.62415 17.447 7.62415C16.9777 7.62415 16.5404 7.73615 16.135 7.96015C15.7404 8.18415 15.4257 8.52015 15.191 8.96815C14.9564 9.40549 14.839 9.94415 14.839 10.5842C14.839 11.5335 15.079 12.2695 15.559 12.7922C16.0497 13.3042 16.663 13.5602 17.399 13.5602Z" fill="white"/>
<path d="M28.2262 6.04015C28.9195 6.04015 29.5382 6.18415 30.0822 6.47215C30.6368 6.76015 31.0688 7.18682 31.3782 7.75215C31.6875 8.31749 31.8422 9.00015 31.8422 9.80015V15.0002H30.0342V10.0722C30.0342 9.28282 29.8368 8.68015 29.4422 8.26415C29.0475 7.83749 28.5088 7.62415 27.8262 7.62415C27.1435 7.62415 26.5995 7.83749 26.1942 8.26415C25.7995 8.68015 25.6022 9.28282 25.6022 10.0722V15.0002H23.7782V6.18415H25.6022V7.19215C25.9008 6.82949 26.2795 6.54682 26.7382 6.34415C27.2075 6.14149 27.7035 6.04015 28.2262 6.04015Z" fill="white"/>
<path d="M36.2968 7.67215V12.5522C36.2968 12.8828 36.3715 13.1228 36.5208 13.2722C36.6808 13.4108 36.9475 13.4802 37.3208 13.4802H38.4408V15.0002H37.0008C36.1795 15.0002 35.5501 14.8082 35.1128 14.4242C34.6755 14.0402 34.4568 13.4162 34.4568 12.5522V7.67215H33.4168V6.18415H34.4568V3.99215H36.2968V6.18415H38.4408V7.67215H36.2968Z" fill="white"/>
<path d="M41.0499 5.01615C40.7192 5.01615 40.4419 4.90415 40.2179 4.68015C39.9939 4.45615 39.8819 4.17882 39.8819 3.84815C39.8819 3.51749 39.9939 3.24015 40.2179 3.01615C40.4419 2.79215 40.7192 2.68015 41.0499 2.68015C41.3699 2.68015 41.6419 2.79215 41.8659 3.01615C42.0899 3.24015 42.2019 3.51749 42.2019 3.84815C42.2019 4.17882 42.0899 4.45615 41.8659 4.68015C41.6419 4.90415 41.3699 5.01615 41.0499 5.01615ZM41.9459 6.18415V15.0002H40.1219V6.18415H41.9459Z" fill="white"/>
<path d="M48.7887 6.04015C49.482 6.04015 50.1007 6.18415 50.6447 6.47215C51.1993 6.76015 51.6313 7.18682 51.9407 7.75215C52.25 8.31749 52.4047 9.00015 52.4047 9.80015V15.0002H50.5967V10.0722C50.5967 9.28282 50.3993 8.68015 50.0047 8.26415C49.61 7.83749 49.0713 7.62415 48.3887 7.62415C47.706 7.62415 47.162 7.83749 46.7567 8.26415C46.362 8.68015 46.1647 9.28282 46.1647 10.0722V15.0002H44.3407V6.18415H46.1647V7.19215C46.4633 6.82949 46.842 6.54682 47.3007 6.34415C47.77 6.14149 48.266 6.04015 48.7887 6.04015Z" fill="white"/>
<path d="M62.7153 6.18415V15.0002H60.8913V13.9602C60.6033 14.3228 60.2246 14.6108 59.7553 14.8242C59.2966 15.0268 58.806 15.1282 58.2833 15.1282C57.59 15.1282 56.966 14.9842 56.4113 14.6962C55.8673 14.4082 55.4353 13.9815 55.1153 13.4162C54.806 12.8508 54.6513 12.1682 54.6513 11.3682V6.18415H56.4593V11.0962C56.4593 11.8855 56.6566 12.4935 57.0513 12.9202C57.446 13.3362 57.9846 13.5442 58.6673 13.5442C59.35 13.5442 59.8886 13.3362 60.2833 12.9202C60.6886 12.4935 60.8913 11.8855 60.8913 11.0962V6.18415H62.7153Z" fill="white"/>
<path d="M73.2019 10.3762C73.2019 10.7068 73.1806 11.0055 73.1379 11.2722H66.4019C66.4552 11.9762 66.7166 12.5415 67.1859 12.9682C67.6552 13.3948 68.2313 13.6082 68.9139 13.6082C69.8953 13.6082 70.5886 13.1975 70.9939 12.3762H72.9619C72.6952 13.1868 72.2099 13.8535 71.5059 14.3762C70.8126 14.8882 69.9486 15.1442 68.9139 15.1442C68.0713 15.1442 67.3139 14.9575 66.6419 14.5842C65.9806 14.2002 65.4579 13.6668 65.0739 12.9842C64.7006 12.2908 64.5139 11.4908 64.5139 10.5842C64.5139 9.67749 64.6952 8.88282 65.0579 8.20015C65.4312 7.50682 65.9486 6.97349 66.6099 6.60015C67.2819 6.22682 68.0499 6.04015 68.9139 6.04015C69.7459 6.04015 70.4872 6.22149 71.1379 6.58415C71.7886 6.94682 72.2952 7.45882 72.6579 8.12015C73.0206 8.77082 73.2019 9.52282 73.2019 10.3762ZM71.2979 9.80015C71.2872 9.12815 71.0473 8.58949 70.5779 8.18415C70.1086 7.77882 69.5272 7.57615 68.8339 7.57615C68.2046 7.57615 67.6659 7.77882 67.2179 8.18415C66.7699 8.57882 66.5032 9.11749 66.4179 9.80015H71.2979Z" fill="white"/>
<path d="M82.3532 15.1442C81.6598 15.1442 81.0358 15.0215 80.4812 14.7762C79.9372 14.5202 79.5052 14.1788 79.1852 13.7522C78.8652 13.3148 78.6945 12.8295 78.6732 12.2962H80.5612C80.5932 12.6695 80.7692 12.9842 81.0892 13.2402C81.4198 13.4855 81.8305 13.6082 82.3212 13.6082C82.8332 13.6082 83.2278 13.5122 83.5052 13.3202C83.7932 13.1175 83.9372 12.8615 83.9372 12.5522C83.9372 12.2215 83.7772 11.9762 83.4572 11.8162C83.1478 11.6562 82.6518 11.4802 81.9692 11.2882C81.3078 11.1068 80.7692 10.9308 80.3532 10.7602C79.9372 10.5895 79.5745 10.3282 79.2652 9.97615C78.9665 9.62415 78.8172 9.16015 78.8172 8.58415C78.8172 8.11482 78.9558 7.68815 79.2332 7.30415C79.5105 6.90949 79.9052 6.60015 80.4172 6.37615C80.9398 6.15215 81.5372 6.04015 82.2092 6.04015C83.2118 6.04015 84.0172 6.29615 84.6252 6.80815C85.2438 7.30949 85.5745 7.99749 85.6172 8.87215H83.7932C83.7612 8.47749 83.6012 8.16282 83.3132 7.92815C83.0252 7.69349 82.6358 7.57615 82.1452 7.57615C81.6652 7.57615 81.2972 7.66682 81.0412 7.84815C80.7852 8.02949 80.6572 8.26949 80.6572 8.56815C80.6572 8.80282 80.7425 9.00015 80.9132 9.16015C81.0838 9.32015 81.2918 9.44815 81.5372 9.54415C81.7825 9.62949 82.1452 9.74149 82.6252 9.88015C83.2652 10.0508 83.7878 10.2268 84.1932 10.4082C84.6092 10.5788 84.9665 10.8348 85.2652 11.1762C85.5638 11.5175 85.7185 11.9708 85.7292 12.5362C85.7292 13.0375 85.5905 13.4855 85.3132 13.8802C85.0358 14.2748 84.6412 14.5842 84.1292 14.8082C83.6278 15.0322 83.0358 15.1442 82.3532 15.1442Z" fill="white"/>
<path d="M87.092 10.5842C87.092 9.67749 87.2734 8.88282 87.636 8.20015C88.0094 7.50682 88.5214 6.97349 89.172 6.60015C89.8227 6.22682 90.5694 6.04015 91.412 6.04015C92.4787 6.04015 93.3587 6.29615 94.052 6.80815C94.756 7.30949 95.2307 8.02949 95.476 8.96815H93.508C93.348 8.53082 93.092 8.18949 92.74 7.94415C92.388 7.69882 91.9454 7.57615 91.412 7.57615C90.6654 7.57615 90.068 7.84282 89.62 8.37615C89.1827 8.89882 88.964 9.63482 88.964 10.5842C88.964 11.5335 89.1827 12.2748 89.62 12.8082C90.068 13.3415 90.6654 13.6082 91.412 13.6082C92.468 13.6082 93.1667 13.1442 93.508 12.2162H95.476C95.22 13.1122 94.74 13.8268 94.036 14.3602C93.332 14.8828 92.4574 15.1442 91.412 15.1442C90.5694 15.1442 89.8227 14.9575 89.172 14.5842C88.5214 14.2002 88.0094 13.6668 87.636 12.9842C87.2734 12.2908 87.092 11.4908 87.092 10.5842Z" fill="white"/>
<path d="M99.1178 7.46415C99.3845 7.01615 99.7365 6.66949 100.174 6.42415C100.622 6.16815 101.15 6.04015 101.758 6.04015V7.92815H101.294C100.579 7.92815 100.035 8.10949 99.6618 8.47215C99.2991 8.83482 99.1178 9.46415 99.1178 10.3602V15.0002H97.2938V6.18415H99.1178V7.46415Z" fill="white"/>
<path d="M125.964 15.1442C125.132 15.1442 105.674 14.9575 105.002 14.5842C104.33 14.2002 103.802 13.6668 103.418 12.9842C103.034 12.2908 102.842 11.4908 102.842 10.5842C102.842 9.68815 103.04 8.89349 103.434 8.20015C103.829 7.50682 104.368 6.97349 105.05 6.60015C105.733 6.22682 125.201 6.04015 126.044 6.04015C126.887 6.04015 127.649 6.22682 128.332 6.60015C129.015 6.97349 129.553 7.50682 129.948 8.20015C130.343 8.89349 130.54 9.68815 130.54 10.5842C130.54 11.4802 130.337 12.2748 129.932 12.9682C129.527 13.6615 128.972 14.2002 128.268 14.5842C127.575 14.9575 126.807 15.1442 125.964 15.1442ZM125.964 13.5602C126.433 13.5602 126.871 13.4482 127.276 13.2242C127.692 13.0002 128.028 12.6642 128.284 12.2162C128.54 11.7682 128.668 11.2242 128.668 10.5842C128.668 9.94415 128.545 9.40549 128.3 8.96815C128.055 8.52015 127.729 8.18415 127.324 7.96015C126.919 7.73615 126.481 7.62415 126.012 7.62415C125.543 7.62415 106.4 7.73615 105.994 7.96015C105.6 8.18415 105.285 8.52015 105.05 8.96815C104.816 9.40549 104.698 9.94415 104.698 10.5842C104.698 11.5335 104.938 12.2695 105.418 12.7922C105.909 13.3042 125.228 13.5602 125.964 13.5602Z" fill="white"/>
<path d="M134.167 3.16015V15.0002H132.343V3.16015H134.167Z" fill="white"/>
<path d="M138.386 3.16015V15.0002H136.562V3.16015H138.386Z" fill="white"/>
<path d="M141.709 5.01615C141.378 5.01615 141.101 4.90415 140.877 4.68015C140.653 4.45615 140.541 4.17882 140.541 3.84815C140.541 3.51749 140.653 3.24015 140.877 3.01615C141.101 2.79215 141.378 2.68015 141.709 2.68015C142.029 2.68015 142.301 2.79215 142.525 3.01615C142.749 3.24015 142.861 3.51749 142.861 3.84815C142.861 4.17882 142.749 4.45615 142.525 4.68015C142.301 4.90415 142.029 5.01615 141.709 5.01615ZM142.605 6.18415V15.0002H140.781V6.18415H142.605Z" fill="white"/>
<path d="M149.447 6.04015C150.141 6.04015 150.759 6.18415 151.303 6.47215C151.858 6.76015 152.29 7.18682 152.6 7.75215C152.909 8.31749 153.063 9.00015 153.063 9.80015V15.0002H151.255V10.0722C151.255 9.28282 151.058 8.68015 150.663 8.26415C150.269 7.83749 149.73 7.62415 149.048 7.62415C148.365 7.62415 147.821 7.83749 147.415 8.26415C147.021 8.68015 146.823 9.28282 146.823 10.0722V15.0002H144.999V6.18415H146.823V7.19215C147.122 6.82949 147.501 6.54682 147.959 6.34415C148.429 6.14149 148.925 6.04015 149.447 6.04015Z" fill="white"/>
<path d="M158.942 6.04015C159.625 6.04015 160.227 6.17882 160.75 6.45615C161.283 6.72282 161.699 7.05882 161.998 7.46415V6.18415H163.838V15.1442C163.838 15.9548 163.667 16.6748 163.326 17.3042C162.985 17.9442 162.489 18.4455 161.838 18.8082C161.198 19.1708 160.43 19.3522 159.534 19.3522C158.339 19.3522 157.347 19.0695 156.558 18.5042C155.769 17.9495 155.321 17.1922 155.214 16.2322H157.022C157.161 16.6908 157.454 17.0588 157.902 17.3362C158.361 17.6242 158.905 17.7682 159.534 17.7682C160.27 17.7682 160.862 17.5442 161.31 17.0962C161.769 16.6482 161.998 15.9975 161.998 15.1442V13.6722C161.689 14.0882 161.267 14.4402 160.734 14.7282C160.211 15.0055 159.614 15.1442 158.942 15.1442C158.174 15.1442 157.47 14.9522 156.83 14.5682C156.201 14.1735 155.699 13.6295 155.326 12.9362C154.963 12.2322 154.782 11.4375 154.782 10.5522C154.782 9.66682 154.963 8.88282 155.326 8.20015C155.699 7.51749 156.201 6.98949 156.83 6.61615C157.47 6.23215 158.174 6.04015 158.942 6.04015ZM161.998 10.5842C161.998 9.97615 161.87 9.44815 161.614 9.00015C161.369 8.55215 161.043 8.21082 160.638 7.97615C160.233 7.74149 159.795 7.62415 159.326 7.62415C158.857 7.62415 158.419 7.74149 158.014 7.97615C157.609 8.20015 157.278 8.53615 157.022 8.98415C156.777 9.42149 156.654 9.94415 156.654 10.5522C156.654 11.1602 156.777 11.6935 157.022 12.1522C157.278 12.6108 157.609 12.9628 158.014 13.2082C158.43 13.4428 158.867 13.5602 159.326 13.5602C159.795 13.5602 160.233 13.4428 160.638 13.2082C161.043 12.9735 161.369 12.6322 161.614 12.1842C161.87 11.7255 161.998 11.1922 161.998 10.5842Z" fill="white"/>
<path d="M171.126 15.1122C170.795 15.1122 170.518 15.0002 170.294 14.7762C170.07 14.5522 169.958 14.2748 169.958 13.9442C169.958 13.6135 170.07 13.3362 170.294 13.1122C170.518 12.8882 170.795 12.7762 171.126 12.7762C171.446 12.7762 171.718 12.8882 171.942 13.1122C172.166 13.3362 172.278 13.6135 172.278 13.9442C172.278 14.2748 172.166 14.5522 171.942 14.7762C171.718 15.0002 171.446 15.1122 171.126 15.1122ZM171.126 8.39215C170.795 8.39215 170.518 8.28015 170.294 8.05615C170.07 7.83215 169.958 7.55482 169.958 7.22415C169.958 6.89349 170.07 6.61615 170.294 6.39215C170.518 6.16815 170.795 6.05615 171.126 6.05615C171.446 6.05615 171.718 6.16815 171.942 6.39215C172.166 6.61615 172.278 6.89349 172.278 7.22415C172.278 7.55482 172.166 7.83215 171.942 8.05615C171.718 8.28015 171.446 8.39215 171.126 8.39215Z" fill="white"/>
<path d="M173.864 17.9762V17.8002C174.963 16.6695 175.8 15.3522 176.376 13.8482C176.952 12.3442 177.24 10.7868 177.24 9.17615C177.24 7.50149 176.931 5.87482 176.312 4.29615C175.693 2.71749 174.771 1.36282 173.544 0.232152V0.0561523H175.432C176.605 1.10149 177.491 2.42949 178.088 4.04015C178.696 5.65082 179 7.36282 179 9.17615C179 10.9468 178.717 12.6055 178.152 14.1522C177.597 15.6988 176.797 16.9735 175.752 17.9762H173.864Z" fill="white"/>
</svg>
