<svg width="94" height="47" viewBox="0 0 94 47" fill="none" xmlns="http://www.w3.org/2000/svg">
<path d="M78.6042 6.47254C74.7724 6.3375 71.2213 6.39236 67.5148 7.54934C62.7786 9.02774 57.9103 11.8728 54.9147 15.9066C51.3854 20.6589 49.9405 26.8381 51.5075 32.621C53.424 39.6936 61.5653 43.3105 68.4148 43.0354C76.2393 42.7212 83.5227 37.2423 87.0418 30.4353C90.1057 24.5088 91.4108 17.4677 88.4722 11.2137C85.9928 5.93695 79.5658 3.51613 74.0077 4.01359C72.1383 4.1809 70.4136 4.87333 68.9452 6.02254C68.06 6.71529 67.9052 7.24707 67.322 8.06363" stroke="#D6FFF8" stroke-width="2" stroke-linecap="round"/>
<path d="M26.8681 6.26693C24.1656 5.76022 21.7319 4.80398 18.919 4.74696C14.5943 4.65929 11.2658 6.89566 8.87492 10.4366C5.7778 15.0235 4.66305 21.711 5.73229 27.1254C6.58205 31.4285 8.89174 35.8843 11.9457 39.0284C15.4299 42.6155 20.2975 43.9721 25.0913 44.7283C27.5991 45.1239 30.7254 45.5988 33.1944 44.5948C36.7693 43.141 39.1993 39.3361 40.4451 35.8652C42.9156 28.9823 41.4791 20.7383 37.4873 14.7397C33.154 8.22798 25.7489 2.79841 17.8304 1.91242C14.8003 1.57339 11.2721 1.95556 9.1214 4.37724C7.29791 6.43052 7.47473 8.76549 7.08793 11.2582" stroke="#D6FFF8" stroke-width="3" stroke-linecap="round"/>
</svg>
