<svg width="188" height="47" viewBox="0 0 188 47" fill="none" xmlns="http://www.w3.org/2000/svg">
<path d="M74.4024 2.69584C71.018 2.22701 67.3221 2.62737 64.0573 3.60389C57.7661 5.48557 52.7181 10.7303 50.0939 16.6864C47.1352 23.4019 46.7545 32.6242 52.6426 37.975C54.963 40.0837 59.1661 41.9709 62.035 42.7842C68.8542 44.7174 76.4758 45.1669 83.3687 43.356C86.83 42.4466 89.5642 41.3194 91.5578 38.2524C93.1972 35.7305 93.1296 33.2817 92.8363 30.4164C92.1033 23.2536 88.203 17.0745 82.7085 12.6002C79.4034 9.90879 73.6357 6.03563 69.071 7.61441C66.1641 8.61983 66.4242 11.4394 66.1296 13.895" stroke="white" stroke-width="2" stroke-linecap="round"/>
<path d="M172.604 6.47254C168.772 6.3375 165.221 6.39236 161.515 7.54934C156.779 9.02774 151.91 11.8728 148.915 15.9066C145.385 20.6589 143.94 26.8381 145.507 32.621C147.424 39.6936 155.565 43.3105 162.415 43.0354C170.239 42.7212 177.523 37.2423 181.042 30.4353C184.106 24.5088 185.411 17.4677 182.472 11.2137C179.993 5.93695 173.566 3.51613 168.008 4.01359C166.138 4.1809 164.414 4.87333 162.945 6.02254C162.06 6.71529 161.905 7.24707 161.322 8.06363" stroke="#D6FFF8" stroke-width="2" stroke-linecap="round"/>
<path d="M125.604 6.47254C121.772 6.3375 118.221 6.39236 114.515 7.54934C109.779 9.02774 104.91 11.8728 101.915 15.9066C98.3854 20.6589 96.9405 26.8381 98.5075 32.621C100.424 39.6936 108.565 43.3105 115.415 43.0354C123.239 42.7212 130.523 37.2423 134.042 30.4353C137.106 24.5088 138.411 17.4677 135.472 11.2137C132.993 5.93695 126.566 3.51613 121.008 4.01359C119.138 4.1809 117.414 4.87333 115.945 6.02254C115.06 6.71529 114.905 7.24707 114.322 8.06363" stroke="#D6FFF8" stroke-width="2" stroke-linecap="round"/>
<path d="M26.8681 6.26693C24.1656 5.76022 21.7319 4.80398 18.919 4.74696C14.5943 4.65929 11.2658 6.89566 8.87492 10.4366C5.7778 15.0235 4.66305 21.711 5.73229 27.1254C6.58205 31.4285 8.89174 35.8843 11.9457 39.0284C15.4299 42.6155 20.2975 43.9721 25.0913 44.7283C27.5991 45.1239 30.7254 45.5988 33.1944 44.5948C36.7693 43.141 39.1993 39.3361 40.4451 35.8652C42.9156 28.9823 41.4791 20.7383 37.4873 14.7397C33.154 8.22798 25.7489 2.79841 17.8304 1.91242C14.8003 1.57339 11.2721 1.95556 9.1214 4.37724C7.29791 6.43052 7.47473 8.76549 7.08793 11.2582" stroke="#D6FFF8" stroke-width="2" stroke-linecap="round"/>
</svg>
