<svg width="375" height="125" viewBox="0 0 375 125" fill="none" xmlns="http://www.w3.org/2000/svg">
<path d="M5.54091 47.4141C4.93753 51.4695 4.8451 55.5943 5.05494 59.6886C5.23488 63.1996 5.35625 69.8729 8.85555 72.0548C10.5967 73.1404 11.5175 69.5931 11.9227 68.5913C12.4859 67.1991 12.9187 65.791 13.1535 64.3068C13.4155 62.6507 13.6114 64.5222 13.9823 65.2403C15.5154 68.2088 18.0569 71.1404 21.0136 72.7617C24.4147 74.6266 24.6866 69.4961 24.9513 67.2395C25.6319 61.4364 25.2622 55.4686 24.209 49.7344C24.0946 49.1115 22.2962 44.36 24.0612 46.2021" stroke="#D6FFF8" stroke-width="3" stroke-linecap="round"/>
<path d="M41.3156 47.7774C36.9217 48.5889 37.4303 55.1444 37.5142 58.4175C37.6018 61.8347 40.7644 74.0494 46.0748 68.5849C50.3715 64.1635 51.9334 53.1298 45.926 49.4396C45.2164 49.0038 40.1276 46.9319 40.0842 48.9573" stroke="#D6FFF8" stroke-width="3" stroke-linecap="round"/>
<path d="M57.7039 71.045C59.0566 68.0879 60.7946 65.3571 62.0447 62.3374C62.9983 60.0341 63.7443 57.6674 64.4739 55.2865C64.539 55.0738 66.1894 48.7687 67.0254 49.824C68.1254 51.2126 68.5261 53.7174 69.2535 55.2994C70.3719 57.7316 71.7229 60.0504 73.1916 62.2855C75.1428 65.2549 77.2291 68.352 80.2343 70.3209" stroke="#D6FFF8" stroke-width="3" stroke-linecap="round"/>
<path d="M62.664 64.7183C66.9434 63.649 71.3299 62.4326 74.8318 59.7519" stroke="#D6FFF8" stroke-width="3" stroke-linecap="round"/>
<path d="M91.1472 48.8436L90.511 78.5817" stroke="#D6FFF8" stroke-width="3" stroke-linecap="round"/>
<path d="M91.9918 65.7478C97.0312 63.9236 102.88 63.9272 108.135 62.8768" stroke="#D6FFF8" stroke-width="3" stroke-linecap="round"/>
<path d="M105.554 51.9662C105.385 59.8892 106.02 67.7705 105.851 75.6935" stroke="#D6FFF8" stroke-width="3" stroke-linecap="round"/>
<path d="M118.423 51.8394C118.466 54.6049 119.029 57.3398 119.251 60.0992C119.462 62.7152 119.384 65.0502 120.097 67.5553" stroke="#D6FFF8" stroke-width="3" stroke-linecap="round"/>
<path d="M119.899 76.7982L119.839 79.6113" stroke="#D6FFF8" stroke-width="3" stroke-linecap="round"/>
<path d="M128.598 64.0619C129.161 68.1231 130.233 72.107 131.587 75.9766C132.749 79.2949 134.744 85.6641 138.716 86.7724C140.693 87.3239 140.577 83.6608 140.684 82.5855C140.832 81.091 140.851 79.6181 140.659 78.1277C140.444 76.4649 141.159 78.2054 141.717 78.7901C144.024 81.2069 147.288 83.3042 150.581 84.0274C154.37 84.8593 153.186 79.8598 152.805 77.62C151.824 71.8601 149.789 66.2378 147.164 61.0321C146.879 60.4666 143.815 56.4137 146.028 57.6844" stroke="#D6FFF8" stroke-width="3" stroke-linecap="round"/>
<path d="M163.027 54.3377C159.04 56.3536 161.374 62.5007 162.376 65.6176C163.422 68.872 169.896 79.7021 173.453 72.9634C176.331 67.511 174.723 56.484 167.919 54.6346C167.116 54.4161 161.649 53.8609 162.178 55.8165" stroke="#D6FFF8" stroke-width="3" stroke-linecap="round"/>
<path d="M185.304 72.0496C185.769 68.8313 186.668 65.7216 187.018 62.4721C187.284 59.9935 187.333 57.5126 187.363 55.0225C187.366 54.8001 187.174 48.2854 188.273 49.0627C189.72 50.0853 190.81 52.376 191.953 53.6891C193.711 55.7081 195.66 57.5527 197.699 59.2838C200.407 61.5837 203.281 63.9681 206.719 65.0112" stroke="#D6FFF8" stroke-width="3" stroke-linecap="round"/>
<path d="M188.282 64.5823C192.087 62.3514 195.954 59.9492 198.559 56.391" stroke="#D6FFF8" stroke-width="3" stroke-linecap="round"/>
<path d="M211.143 41.3301L218.906 70.0443" stroke="#D6FFF8" stroke-width="3" stroke-linecap="round"/>
<path d="M216.713 57.3127C221.035 54.1434 226.648 52.5001 231.395 50.0124" stroke="#D6FFF8" stroke-width="3" stroke-linecap="round"/>
<path d="M225.847 40.2699C227.915 47.9201 230.744 55.3036 232.812 62.9539" stroke="#D6FFF8" stroke-width="3" stroke-linecap="round"/>
<path d="M238.159 36.5251C238.979 39.1665 240.289 41.6322 241.279 44.2175C242.218 46.6684 242.801 48.9307 244.19 51.1338" stroke="#D6FFF8" stroke-width="3" stroke-linecap="round"/>
<path d="M246.603 60.0585L247.337 62.7747" stroke="#D6FFF8" stroke-width="3" stroke-linecap="round"/>
<path d="M253.598 64.0619C254.161 68.1231 255.233 72.107 256.587 75.9766C257.749 79.2949 259.744 85.6641 263.716 86.7724C265.693 87.3239 265.577 83.6608 265.684 82.5855C265.832 81.091 265.851 79.6181 265.659 78.1277C265.444 76.4649 266.159 78.2054 266.717 78.7901C269.024 81.2069 272.288 83.3042 275.581 84.0274C279.37 84.8593 278.186 79.8598 277.805 77.62C276.824 71.8601 274.789 66.2378 272.164 61.0321C271.879 60.4666 268.815 56.4137 271.028 57.6844" stroke="#D6FFF8" stroke-width="3" stroke-linecap="round"/>
<path d="M288.027 54.3377C284.04 56.3536 286.374 62.5007 287.376 65.6176C288.422 68.872 294.896 79.7021 298.453 72.9634C301.331 67.511 299.723 56.484 292.919 54.6346C292.116 54.4161 286.649 53.8609 287.178 55.8165" stroke="#D6FFF8" stroke-width="3" stroke-linecap="round"/>
<path d="M310.304 72.0496C310.769 68.8313 311.668 65.7216 312.018 62.4721C312.284 59.9935 312.333 57.5126 312.363 55.0225C312.366 54.8001 312.174 48.2854 313.273 49.0627C314.72 50.0853 315.81 52.376 316.953 53.6891C318.711 55.7081 320.66 57.5527 322.699 59.2838C325.407 61.5837 328.281 63.9681 331.719 65.0112" stroke="#D6FFF8" stroke-width="3" stroke-linecap="round"/>
<path d="M313.282 64.5823C317.087 62.3514 320.954 59.9492 323.559 56.391" stroke="#D6FFF8" stroke-width="3" stroke-linecap="round"/>
<path d="M336.143 41.3301L343.906 70.0443" stroke="#D6FFF8" stroke-width="3" stroke-linecap="round"/>
<path d="M341.713 57.3127C346.035 54.1434 351.648 52.5001 356.395 50.0124" stroke="#D6FFF8" stroke-width="3" stroke-linecap="round"/>
<path d="M350.847 40.2699C352.915 47.9201 355.744 55.3036 357.812 62.9539" stroke="#D6FFF8" stroke-width="3" stroke-linecap="round"/>
<path d="M363.159 36.5251C363.979 39.1665 365.289 41.6322 366.279 44.2175C367.218 46.6684 367.801 48.9307 369.19 51.1338" stroke="#D6FFF8" stroke-width="3" stroke-linecap="round"/>
<path d="M371.603 60.0585L372.337 62.7747" stroke="#D6FFF8" stroke-width="3" stroke-linecap="round"/>
</svg>
